<?xml version="1.0" standalone="no"?><svg xmlns="http://www.w3.org/2000/svg" viewBox="0 0 1440 320"><path fill="#e30052" fill-opacity="1" d="M0,96L34.3,117.3C68.6,139,137,181,206,186.7C274.3,192,343,160,411,128C480,96,549,64,617,90.7C685.7,117,754,203,823,218.7C891.4,235,960,181,1029,181.3C1097.1,181,1166,235,1234,261.3C1302.9,288,1371,288,1406,288L1440,288L1440,320L1405.7,320C1371.4,320,1303,320,1234,320C1165.7,320,1097,320,1029,320C960,320,891,320,823,320C754.3,320,686,320,617,320C548.6,320,480,320,411,320C342.9,320,274,320,206,320C137.1,320,69,320,34,320L0,320Z"></path></svg>