<?xml version="1.0" standalone="no"?><svg xmlns="http://www.w3.org/2000/svg" viewBox="0 0 1440 320"><path fill="#6b7280" fill-opacity="1" d="M0,160L10,181.3C20,203,40,245,60,240C80,235,100,181,120,144C140,107,160,85,180,69.3C200,53,220,43,240,37.3C260,32,280,32,300,69.3C320,107,340,181,360,202.7C380,224,400,192,420,181.3C440,171,460,181,480,170.7C500,160,520,128,540,128C560,128,580,160,600,192C620,224,640,256,660,224C680,192,700,96,720,85.3C740,75,760,149,780,165.3C800,181,820,139,840,138.7C860,139,880,181,900,202.7C920,224,940,224,960,240C980,256,1000,288,1020,304C1040,320,1060,320,1080,272C1100,224,1120,128,1140,90.7C1160,53,1180,75,1200,69.3C1220,64,1240,32,1260,58.7C1280,85,1300,171,1320,224C1340,277,1360,299,1380,293.3C1400,288,1420,256,1430,240L1440,224L1440,0L1430,0C1420,0,1400,0,1380,0C1360,0,1340,0,1320,0C1300,0,1280,0,1260,0C1240,0,1220,0,1200,0C1180,0,1160,0,1140,0C1120,0,1100,0,1080,0C1060,0,1040,0,1020,0C1000,0,980,0,960,0C940,0,920,0,900,0C880,0,860,0,840,0C820,0,800,0,780,0C760,0,740,0,720,0C700,0,680,0,660,0C640,0,620,0,600,0C580,0,560,0,540,0C520,0,500,0,480,0C460,0,440,0,420,0C400,0,380,0,360,0C340,0,320,0,300,0C280,0,260,0,240,0C220,0,200,0,180,0C160,0,140,0,120,0C100,0,80,0,60,0C40,0,20,0,10,0L0,0Z"></path></svg>